{"title":"Fall Of The Essex Boys 2013 DVDrip Xvid Ac3-MiLLENiUM [P2PDL]","uid":9393988,"size":1422255287,"categoryP":"video","categoryS":"movies","magnet":"?xt=urn:btih:abc32d570dc7003c69242a509604c4786e527b7b&amp;dn=Fall+Of+The+Essex+Boys+2013+DVDrip+Xvid+Ac3-MiLLENiUM+%5BP2PDL%5D&amp;tr=udp%3A%2F%2Ftracker.openbittorrent.com%3A80&amp;tr=udp%3A%2F%2Fopen.demonii.com%3A1337&amp;tr=udp%3A%2F%2Ftracker.coppersurfer.tk%3A6969&amp;tr=udp%3A%2F%2Fexodus.desync.com%3A6969","seeders":1,"leechers":0,"uploader":"ValidusVyto","files":4,"time":1387943423,"description":"Fall.Of.The.Essex.Boys.2013.DVDrip.Xvid.Ac3-MiLLENiUM\n\nInfo:\nGeneral\nComplete name                            : Fall.Of.The.Essex.Boys.2013.DVDrip.Xvid.Ac3-MiLLENiUM.[P2PDL]/Fall Of The Essex Boys 2013 DVDrip Xvid Ac3-MiLLENiUM.avi\nFormat                                   : AVI\nFormat/Info                              : Audio Video Interleave\nFile size                                : 1.31 GiB\nDuration                                 : 1h 27mn\nOverall bit rate                         : 2 153 Kbps\nWriting application                      : VirtualDubMod 1.5.10.2 (build 2540/release)\nWriting library                          : VirtualDubMod build 2540/release\n\nVideo\nID                                       : 0\nFormat                                   : MPEG-4 Visual\nFormat profile                           : Advanced Simple@L5\nFormat settings, BVOP                    : 2\nFormat settings, QPel                    : No\nFormat settings, GMC                     : No warppoints\nFormat settings, Matrix                  : Default (H.263)\nMuxing mode                              : Packed bitstream\nCodec ID                                 : XVID\nCodec ID/Hint                            : XviD\nDuration                                 : 1h 27mn\nBit rate                                 : 1 695 Kbps\nWidth                                    : 720 pixels\nHeight                                   : 288 pixels\nDisplay aspect ratio                     : 2.500\nFrame rate                               : 25.000 fps\nColor space                              : YUV\nChroma subsampling                       : 4:2:0\nBit depth                                : 8 bits\nScan type                                : Progressive\nCompression mode                         : Lossy\nBits/(Pixel*Frame)                       : 0.327\nStream size                              : 1.03 GiB (79%)\nWriting library                          : XviD 64\n\nAudio\nID                                       : 1\nFormat                                   : AC-3\nFormat/Info                              : Audio Coding 3\nMode extension                           : CM (complete main)\nFormat settings, Endianness              : Big\nCodec ID                                 : 2000\nDuration                                 : 1h 27mn\nBit rate mode                            : Constant\nBit rate                                 : 448 Kbps\nChannel(s)                               : 6 channels\nChannel positions                        : Front: L C R, Side: L R, LFE\nSampling rate                            : 48.0 KHz\nBit depth                                : 16 bits\nCompression mode                         : Lossy\nStream size                              : 279 MiB (21%)\nAlignment                                : Split accross interleaves\nInterleave, duration                     : 40 ms (1.00 video frame)\nInterleave, preload duration             : 500 ms\n\n\n\n\nScreenshots: &lt;a href=&quot;\nhttp://beeimg.com/images/o98189276211.jpg&quot; rel=&quot;nofollow&quot; target=&quot;_NEW&quot;&gt;\nhttp://beeimg.com/images/o98189276211.jpg&lt;/a&gt; &lt;a href=&quot;\nhttp://beeimg.com/images/n72971257612.jpg&quot; rel=&quot;nofollow&quot; target=&quot;_NEW&quot;&gt;\nhttp://beeimg.com/images/n72971257612.jpg&lt;/a&gt;","torrent":{"xt":"urn:btih:abc32d570dc7003c69242a509604c4786e527b7b","amp;dn":"Fall+Of+The+Essex+Boys+2013+DVDrip+Xvid+Ac3-MiLLENiUM+%5BP2PDL%5D","amp;tr":["udp%3A%2F%2Ftracker.openbittorrent.com%3A80","udp%3A%2F%2Fopen.demonii.com%3A1337","udp%3A%2F%2Ftracker.coppersurfer.tk%3A6969","udp%3A%2F%2Fexodus.desync.com%3A6969"],"infoHash":"abc32d570dc7003c69242a509604c4786e527b7b","infoHashBuffer":{"type":"Buffer","data":[171,195,45,87,13,199,0,60,105,36,42,80,150,4,196,120,110,82,123,123]},"announce":[],"urlList":[]}}